<svg width="32" height="32" viewBox="0 0 32 32" fill="none" xmlns="http://www.w3.org/2000/svg">
<path d="M21.4864 7.64403V4.17935C21.9756 3.89403 22.2609 3.36413 22.2609 2.71196C22.2609 1.77446 21.5679 1 20.7527 1H10.481C9.66576 1 8.97283 1.77446 8.97283 2.71196C8.97283 3.36413 9.29892 3.93479 9.78805 4.22011V7.68479C6.40489 8.58153 4 11.6794 4 15.2256V23.1739C4 27.4946 7.50544 31 11.8261 31H19.4076C23.7283 31 27.2337 27.4946 27.2745 23.1332V15.1848C27.2745 11.6386 24.8696 8.54077 21.4864 7.64403ZM25.8071 23.1739C25.8071 26.7201 22.9538 29.5734 19.4076 29.5734H11.8261C8.27989 29.5734 5.42663 26.7201 5.42663 23.1739V15.2256C5.42663 12.1685 7.58696 9.51903 10.644 8.98914L11.2147 8.86686V3.73098V3.03805H10.5217C10.481 3.03805 10.3995 2.91576 10.3995 2.75272C10.3995 2.58968 10.481 2.46739 10.481 2.46739H20.712C20.712 2.46739 20.7935 2.54892 20.8342 2.71196C20.8342 2.875 20.7527 2.99729 20.7527 2.99729L20.0598 3.03805V8.8261L20.6304 8.94838C23.606 9.51903 25.8071 12.1685 25.8071 15.2256V23.1739V23.1739Z" fill="black"/>
<path fill-rule="evenodd" clip-rule="evenodd" d="M16.0244 18.8533C15.9836 18.4049 15.6168 18.0381 15.1684 18.0381C14.8016 18.0381 14.4755 18.2826 14.3532 18.6087C13.9456 18.568 13.5788 18.5272 13.2119 18.4864V18.4049C13.2119 17.6305 12.6005 17.019 11.826 17.019C11.0516 17.019 10.4402 17.6305 10.4402 18.4049C8.74996 18.4687 7.40907 18.6572 6.84694 18.7363C6.69059 18.7582 6.59448 18.7718 6.56787 18.7718V19.2609V22.5218C6.56787 25.7826 9.21733 28.4321 12.4782 28.4321H18.7554C22.0163 28.4321 24.6657 25.7826 24.6657 22.5218V22.1957V19.1386C21.4864 19.7908 18.4701 19.3017 16.0244 18.8533Z" fill="black"/>
<path d="M9.24282 25.4069H10.1374V22.069L10.2013 21.6621L9.94574 21.9862L9.24282 22.531L9 22.1793L10.4058 21.0069H10.6359V25.4069H11.5113V25.9172H9.24282V25.4069Z" fill="white"/>
<path d="M11.9901 23.5034C11.9901 22.6759 12.1136 22.0529 12.3607 21.6345C12.612 21.2161 12.9763 21.0069 13.4534 21.0069C13.9689 21.0069 14.3416 21.2138 14.5717 21.6276C14.806 22.0368 14.9231 22.6621 14.9231 23.5034C14.9231 24.331 14.7975 24.954 14.5461 25.3724C14.299 25.7908 13.9348 26 13.4534 26C12.9465 26 12.5758 25.7816 12.3415 25.3448C12.1072 24.908 11.9901 24.2943 11.9901 23.5034ZM12.5204 23.5034C12.5204 23.8023 12.5375 24.0759 12.5716 24.3241C12.6099 24.5678 12.6674 24.7793 12.7441 24.9586C12.8208 25.1333 12.9166 25.2713 13.0317 25.3724C13.1509 25.469 13.2915 25.5172 13.4534 25.5172C13.7772 25.5172 14.0136 25.3563 14.1627 25.0345C14.3161 24.708 14.3927 24.1977 14.3927 23.5034C14.3927 23.2092 14.3757 22.9379 14.3416 22.6897C14.3118 22.4414 14.2586 22.2276 14.1819 22.0483C14.1095 21.869 14.0136 21.731 13.8943 21.6345C13.775 21.5379 13.6281 21.4897 13.4534 21.4897C13.1339 21.4897 12.8975 21.6529 12.7441 21.9793C12.595 22.3057 12.5204 22.8138 12.5204 23.5034Z" fill="white"/>
<path d="M15.1527 23.5034C15.1527 22.6759 15.2762 22.0529 15.5233 21.6345C15.7746 21.2161 16.1389 21.0069 16.616 21.0069C17.1315 21.0069 17.5042 21.2138 17.7343 21.6276C17.9686 22.0368 18.0857 22.6621 18.0857 23.5034C18.0857 24.331 17.9601 24.954 17.7087 25.3724C17.4616 25.7908 17.0974 26 16.616 26C16.1091 26 15.7384 25.7816 15.5041 25.3448C15.2698 24.908 15.1527 24.2943 15.1527 23.5034ZM15.683 23.5034C15.683 23.8023 15.7001 24.0759 15.7342 24.3241C15.7725 24.5678 15.83 24.7793 15.9067 24.9586C15.9834 25.1333 16.0792 25.2713 16.1943 25.3724C16.3135 25.469 16.4541 25.5172 16.616 25.5172C16.9398 25.5172 17.1762 25.3563 17.3253 25.0345C17.4787 24.708 17.5553 24.1977 17.5553 23.5034C17.5553 23.2092 17.5383 22.9379 17.5042 22.6897C17.4744 22.4414 17.4212 22.2276 17.3445 22.0483C17.2721 21.869 17.1762 21.731 17.0569 21.6345C16.9376 21.5379 16.7907 21.4897 16.616 21.4897C16.2965 21.4897 16.0601 21.6529 15.9067 21.9793C15.7576 22.3057 15.683 22.8138 15.683 23.5034Z" fill="white"/>
<path d="M18.4878 22.1793C18.4878 21.9724 18.5134 21.7954 18.5645 21.6483C18.6156 21.5011 18.6838 21.3793 18.769 21.2828C18.8584 21.1862 18.9628 21.1172 19.0821 21.0759C19.2056 21.0299 19.3377 21.0069 19.4783 21.0069C19.6189 21.0069 19.7488 21.0276 19.8681 21.069C19.9916 21.1103 20.096 21.177 20.1812 21.269C20.2706 21.3609 20.3409 21.4828 20.3921 21.6345C20.4432 21.7816 20.4687 21.9632 20.4687 22.1793C20.4687 22.3954 20.4432 22.5793 20.3921 22.731C20.3409 22.8782 20.2706 22.9977 20.1812 23.0897C20.096 23.1816 19.9916 23.2483 19.8681 23.2897C19.7488 23.331 19.6189 23.3517 19.4783 23.3517C19.3377 23.3517 19.2056 23.331 19.0821 23.2897C18.9628 23.2483 18.8584 23.1816 18.769 23.0897C18.6838 22.9977 18.6156 22.8782 18.5645 22.731C18.5134 22.5793 18.4878 22.3954 18.4878 22.1793ZM18.9607 22.1793C18.9607 22.4552 19.0054 22.6529 19.0949 22.7724C19.1886 22.892 19.3164 22.9517 19.4783 22.9517C19.5592 22.9517 19.6316 22.9402 19.6955 22.9172C19.7594 22.8897 19.8127 22.8483 19.8553 22.7931C19.9021 22.7333 19.9362 22.6552 19.9575 22.5586C19.9831 22.4575 19.9959 22.331 19.9959 22.1793C19.9959 22.0276 19.9831 21.9034 19.9575 21.8069C19.9362 21.7057 19.9021 21.6276 19.8553 21.5724C19.8127 21.5126 19.7594 21.4713 19.6955 21.4483C19.6316 21.4207 19.5592 21.4069 19.4783 21.4069C19.3164 21.4069 19.1886 21.4621 19.0949 21.5724C19.0054 21.6782 18.9607 21.8805 18.9607 22.1793ZM20.7691 24.7379C20.7691 24.531 20.7946 24.354 20.8458 24.2069C20.8969 24.0598 20.965 23.9379 21.0502 23.8414C21.1397 23.7448 21.2441 23.6759 21.3633 23.6345C21.4869 23.5885 21.619 23.5655 21.7595 23.5655C21.9001 23.5655 22.03 23.5862 22.1493 23.6276C22.2729 23.669 22.3772 23.7356 22.4624 23.8276C22.5519 23.9195 22.6222 24.0414 22.6733 24.1931C22.7244 24.3402 22.75 24.5218 22.75 24.7379C22.75 24.954 22.7244 25.1379 22.6733 25.2897C22.6222 25.4368 22.5519 25.5563 22.4624 25.6483C22.3772 25.7402 22.2729 25.8069 22.1493 25.8483C22.03 25.8897 21.9001 25.9103 21.7595 25.9103C21.619 25.9103 21.4869 25.8897 21.3633 25.8483C21.2441 25.8069 21.1397 25.7402 21.0502 25.6483C20.965 25.5563 20.8969 25.4368 20.8458 25.2897C20.7946 25.1379 20.7691 24.954 20.7691 24.7379ZM21.2419 24.7379C21.2419 25.0138 21.2867 25.2115 21.3761 25.331C21.4699 25.4506 21.5977 25.5103 21.7595 25.5103C21.8405 25.5103 21.9129 25.4989 21.9768 25.4759C22.0407 25.4483 22.0939 25.4069 22.1366 25.3517C22.1834 25.292 22.2175 25.2138 22.2388 25.1172C22.2644 25.0161 22.2771 24.8897 22.2771 24.7379C22.2771 24.5862 22.2644 24.4621 22.2388 24.3655C22.2175 24.2644 22.1834 24.1862 22.1366 24.131C22.0939 24.0713 22.0407 24.0299 21.9768 24.0069C21.9129 23.9793 21.8405 23.9655 21.7595 23.9655C21.5977 23.9655 21.4699 24.0207 21.3761 24.131C21.2867 24.2368 21.2419 24.4391 21.2419 24.7379ZM22.111 21L22.4241 21.2621L19.146 26L18.8265 25.731L22.111 21Z" fill="white"/>
</svg>
