<svg width="32" height="32" viewBox="0 0 32 32" fill="none" xmlns="http://www.w3.org/2000/svg">
<path d="M14.6667 3.33331C14.6667 1.49544 13.1713 0 11.3333 0C9.49538 0 8.00001 1.49544 8.00001 3.33331V24.0879C7.14907 24.9603 6.66669 26.1269 6.66669 27.3333C6.66669 29.9063 8.76044 32 11.3334 32C13.9063 32 16 29.9063 16 27.3333C16 26.1269 15.5176 24.9603 14.6667 24.0879V3.33331ZM11.3333 30.6667C9.49544 30.6667 8.00001 29.1713 8.00001 27.3334C8.00001 26.3894 8.39519 25.5131 9.11332 24.8666C9.25332 24.7396 9.33338 24.5599 9.33338 24.3711V3.33331C9.33338 2.23044 10.2305 1.33331 11.3334 1.33331C12.4363 1.33331 13.3334 2.23044 13.3334 3.33331V24.3711C13.3334 24.5599 13.4134 24.7396 13.5534 24.8665C14.2716 25.513 14.6668 26.3893 14.6668 27.3333C14.6667 29.1713 13.1713 30.6667 11.3333 30.6667Z" fill="black"/>
<path d="M12 25.4561V14C12 13.6315 11.7018 13.3333 11.3333 13.3333C10.9648 13.3333 10.6666 13.6315 10.6666 14V25.4561C9.8923 25.7322 9.3333 26.4653 9.3333 27.3333C9.3333 28.4362 10.2304 29.3333 11.3333 29.3333C12.4362 29.3333 13.3333 28.4362 13.3333 27.3333C13.3333 26.4653 12.7743 25.7322 12 25.4561ZM11.3333 28C10.9655 28 10.6666 27.7012 10.6666 27.3333C10.6666 26.9655 10.9654 26.6666 11.3333 26.6666C11.7011 26.6666 12 26.9654 12 27.3333C12 27.7012 11.7012 28 11.3333 28Z" fill="black"/>
<path d="M5.99999 21.3333H1.99999C1.63149 21.3333 1.33331 21.6315 1.33331 22C1.33331 22.3685 1.63149 22.6667 1.99999 22.6667H5.99999C6.36849 22.6667 6.66668 22.3685 6.66668 22C6.66668 21.6315 6.36849 21.3333 5.99999 21.3333Z" fill="black"/>
<path d="M6 18.6667H4.66669C4.29819 18.6667 4 18.9649 4 19.3334C4 19.7018 4.29819 20 4.66669 20H6C6.3685 20 6.66669 19.7018 6.66669 19.3333C6.66669 18.9649 6.3685 18.6667 6 18.6667Z" fill="black"/>
<path d="M6 16H4.66669C4.29819 16 4 16.2982 4 16.6667C4 17.0352 4.29819 17.3334 4.66669 17.3334H6C6.3685 17.3334 6.66669 17.0352 6.66669 16.6667C6.66669 16.2982 6.3685 16 6 16Z" fill="black"/>
<path d="M1.99999 14.6667H5.99999C6.36849 14.6667 6.66668 14.3685 6.66668 14C6.66668 13.6315 6.36849 13.3333 5.99999 13.3333H1.99999C1.63149 13.3333 1.33331 13.6315 1.33331 14C1.33331 14.3685 1.63149 14.6667 1.99999 14.6667Z" fill="black"/>
<path d="M1.99999 6.66669H5.99999C6.36849 6.66669 6.66668 6.3685 6.66668 6C6.66668 5.6315 6.36849 5.33331 5.99999 5.33331H1.99999C1.63149 5.33331 1.33331 5.6315 1.33331 6C1.33331 6.3685 1.63149 6.66669 1.99999 6.66669Z" fill="black"/>
<path d="M6 10.6667H4.66669C4.29819 10.6667 4 10.9649 4 11.3334C4 11.7018 4.29819 12 4.66669 12H6C6.3685 12 6.66669 11.7018 6.66669 11.3333C6.66669 10.9649 6.3685 10.6667 6 10.6667Z" fill="black"/>
<path d="M6 8H4.66669C4.29819 8 4 8.29819 4 8.66669C4 9.03519 4.29819 9.33337 4.66669 9.33337H6C6.3685 9.33337 6.66669 9.03519 6.66669 8.66669C6.66669 8.29819 6.3685 8 6 8Z" fill="black"/>
<path d="M20.6667 10.6667H22C23.1029 10.6667 24 11.5638 24 12.6667C24 13.0352 24.2982 13.3334 24.6667 13.3334C25.0352 13.3334 25.3334 13.0352 25.3334 12.6667C25.3334 10.8288 23.838 9.33339 22.0001 9.33339H20.6668C18.8289 9.33339 17.3335 10.8288 17.3335 12.6667V18C17.3335 19.8379 18.8289 21.3333 20.6668 21.3333H22C23.8379 21.3333 25.3333 19.8379 25.3333 18C25.3333 17.6315 25.0351 17.3333 24.6666 17.3333C24.2981 17.3333 24 17.6315 24 18C24 19.1029 23.1029 20 22 20H20.6667C19.5638 20 18.6667 19.1029 18.6667 18V12.6667C18.6667 11.5638 19.5638 10.6667 20.6667 10.6667Z" fill="black"/>
<path d="M28.6667 9.3333C27.5638 9.3333 26.6667 10.2304 26.6667 11.3333C26.6667 12.4362 27.5638 13.3333 28.6667 13.3333C29.7696 13.3333 30.6667 12.4362 30.6667 11.3333C30.6667 10.2305 29.7696 9.3333 28.6667 9.3333ZM28.6667 12C28.2989 12 28 11.7012 28 11.3333C28 10.9655 28.2988 10.6666 28.6667 10.6666C29.0346 10.6666 29.3334 10.9654 29.3334 11.3333C29.3333 11.7012 29.0345 12 28.6667 12Z" fill="black"/>
</svg>
