<svg width="32" height="32" viewBox="0 0 32 32" fill="none" xmlns="http://www.w3.org/2000/svg">
<path d="M0.633514 17.7159V27.9396L8.31676 31.3732V21.7073" fill="#FAF7F5"/>
<path d="M8.31676 21.1495L0.633514 17.7159L8.31676 14.2823L16 17.7159L8.31676 21.1495Z" fill="#FAF7F5"/>
<path d="M16 17.7159V27.9396L23.6833 31.3732V21.7073" fill="#FAF7F5"/>
<path d="M23.6833 21.1495L16 17.7159L23.6833 14.2823L31.3665 17.7159L23.6833 21.1495Z" fill="#FAF7F5"/>
<path d="M8.31674 4.05853V14.2823L16 17.7159V8.04997" fill="#FAF7F5"/>
<path d="M16 7.49216L8.31674 4.05853L16 0.624908L23.6832 4.05853L16 7.49216Z" fill="#FAF7F5"/>
<path d="M31.9915 17.6738C31.9915 17.4756 31.8848 17.2928 31.7122 17.1953L31.7105 17.1943C31.6786 17.1732 31.6447 17.1549 31.6091 17.1399L24.3081 13.8772V4.0585C24.3081 4.05375 24.3081 4.04906 24.308 4.04437L24.3078 4.03975C24.3078 4.03663 24.3076 4.03344 24.3075 4.03031L24.3072 4.02469C24.307 4.02069 24.3068 4.01663 24.3065 4.01263C24.3063 4.00981 24.306 4.00706 24.3058 4.00431L24.3054 3.99994C24.2937 3.87481 24.2451 3.76037 24.1707 3.66762L24.1675 3.66369C24.166 3.66187 24.1645 3.66006 24.163 3.65825C24.1615 3.65638 24.1599 3.6545 24.1583 3.65263L24.1548 3.64856C24.152 3.64531 24.1491 3.64206 24.1461 3.63888L24.1444 3.637C24.1418 3.63413 24.1391 3.63125 24.1364 3.62844L24.1345 3.62644C24.1315 3.62331 24.1285 3.62019 24.1254 3.61713C24.122 3.61369 24.1179 3.60969 24.1143 3.60631C24.1111 3.60325 24.1075 3.59987 24.1042 3.59687L24.1023 3.59519C24.0993 3.5925 24.0963 3.58975 24.0932 3.58713L24.0916 3.58575C24.0882 3.58281 24.0848 3.57987 24.0813 3.577L24.0783 3.57463C24.076 3.57275 24.0736 3.57081 24.0713 3.56894C24.0697 3.56769 24.0681 3.56644 24.0665 3.56519C24.0647 3.56381 24.063 3.56244 24.0611 3.56106C24.0195 3.52938 23.9738 3.50281 23.9249 3.48225L16.255 0.054375C16.0928 -0.018125 15.9073 -0.018125 15.745 0.054375L8.07489 3.48213C8.02601 3.50269 7.98033 3.52925 7.9387 3.56094C7.93689 3.56231 7.93508 3.56369 7.93333 3.56506C7.9317 3.56631 7.93014 3.56756 7.92858 3.56881C7.9262 3.57069 7.92389 3.57256 7.92151 3.5745L7.91858 3.57687C7.91508 3.57975 7.91164 3.58269 7.9082 3.58562L7.90664 3.587C7.90358 3.58962 7.90051 3.59237 7.89751 3.59506L7.89564 3.59675C7.89233 3.59975 7.88908 3.60281 7.88583 3.60588C7.88226 3.60925 7.87845 3.613 7.87501 3.61644C7.87195 3.6195 7.86839 3.62319 7.86539 3.62631L7.86345 3.62831C7.86076 3.63113 7.85808 3.634 7.85545 3.63687L7.8537 3.63875C7.85083 3.64194 7.84795 3.64519 7.84508 3.64844L7.84158 3.6525C7.84001 3.65437 7.83839 3.65625 7.83683 3.65812C7.83533 3.65994 7.83383 3.66175 7.83233 3.66356L7.8292 3.6675C7.7547 3.76025 7.70614 3.87463 7.69451 3.99981L7.69414 4.00419C7.69389 4.007 7.69364 4.00975 7.69345 4.0125C7.69314 4.0165 7.69289 4.02056 7.6927 4.02456L7.69245 4.03019C7.69233 4.03331 7.6922 4.0365 7.69208 4.03963L7.69195 4.04425C7.69183 4.04894 7.69176 4.05369 7.69176 4.05837V13.877L0.390827 17.1399C0.159952 17.2367 0.0085144 17.4626 0.0085144 17.713V17.7159V27.9397C0.0085144 28.1862 0.153389 28.4097 0.378514 28.5103L8.06308 31.9444L8.0667 31.9461C8.22495 32.0176 8.40633 32.0179 8.56483 31.9469L8.57176 31.9438L16 28.6243L23.4283 31.9439C23.4283 31.9439 23.438 31.9476 23.4535 31.9535C23.61 32.013 23.7841 32.0097 23.9381 31.9439L31.6215 28.5103C31.8465 28.4097 31.9915 28.1862 31.9915 27.9397V17.7159V17.6738ZM23.6833 20.4651L17.5318 17.7159L23.6833 14.9669L29.8347 17.7159L23.6833 20.4651ZM16 16C16 16 16.625 15.7202 16.625 15.3751C16.625 15.0299 16.625 7.89744 16.625 7.89744L23.0583 5.02244V13.8771L16.625 16.7521V14.9981C16.625 14.6529 16.3451 14.3731 16 14.3731C15.6549 14.3731 15.3751 14.6529 15.3751 14.9981V16.7521L8.94176 13.8771V5.02244L15.3751 7.89744C15.3751 7.89744 15.3751 15.0299 15.3751 15.3751C15.375 15.7202 16 16 16 16ZM16 1.3095L22.1515 4.05863L16 6.80762L9.84851 4.05856L16 1.3095ZM8.31676 14.9669L14.4683 17.7159L8.31676 20.4651L2.16533 17.7159L8.31676 14.9669ZM1.25845 18.6798L7.7087 21.5624C7.69764 21.609 7.69176 21.6575 7.69176 21.7074V30.4095L1.25845 27.5344V18.6798ZM8.92476 21.5624L15.375 18.6798V27.5345L8.9417 30.4096V21.7074C8.9417 21.6575 8.93583 21.6089 8.92476 21.5624ZM16.625 18.6798L23.0752 21.5624C23.0641 21.609 23.0583 21.6575 23.0583 21.7074V30.4095L16.625 27.5344V18.6798ZM24.3082 30.4095V21.7074C24.3082 21.6574 24.3023 21.6089 24.2913 21.5624L30.7415 18.6798V27.5344L24.3082 30.4095Z" fill="black"/>
<path d="M16 12.7862C15.7355 12.7862 15.493 12.6128 15.4081 12.3621C15.3281 12.1258 15.4 11.856 15.5879 11.6915C15.7927 11.5122 16.0985 11.4879 16.3297 11.6309C16.5514 11.768 16.666 12.0392 16.6102 12.2937C16.548 12.5775 16.291 12.7862 16 12.7862V12.7862Z" fill="black"/>
</svg>
